<mxfile host="app.diagrams.net" modified="2023-06-19T14:10:19.147Z" agent="Mozilla/5.0 (Windows NT 10.0; Win64; x64) AppleWebKit/537.36 (KHTML, like Gecko) Chrome/114.0.0.0 Safari/537.36" etag="k1YrJQng77dGXabTnu7a" version="21.5.0" type="device">
  <diagram name="Page-1" id="cvxpRtqzHrmowPEIcIa5">
    <mxGraphModel dx="794" dy="1107" grid="1" gridSize="10" guides="1" tooltips="1" connect="1" arrows="1" fold="1" page="1" pageScale="1" pageWidth="850" pageHeight="1100" math="0" shadow="0">
      <root>
        <mxCell id="0" />
        <mxCell id="1" parent="0" />
        <mxCell id="oR8qnFVg_3T_-0G8JnXh-11" value="" style="group" parent="1" vertex="1" connectable="0">
          <mxGeometry x="30" y="290" width="142.5" height="130" as="geometry" />
        </mxCell>
        <mxCell id="oR8qnFVg_3T_-0G8JnXh-1" value="" style="shape=umlActor;verticalLabelPosition=bottom;verticalAlign=top;html=1;outlineConnect=0;" parent="oR8qnFVg_3T_-0G8JnXh-11" vertex="1">
          <mxGeometry x="30" width="30" height="60" as="geometry" />
        </mxCell>
        <mxCell id="oR8qnFVg_3T_-0G8JnXh-2" value="" style="sketch=0;pointerEvents=1;shadow=0;dashed=0;html=1;strokeColor=none;labelPosition=center;verticalLabelPosition=bottom;verticalAlign=top;outlineConnect=0;align=center;shape=mxgraph.office.security.key_permissions;fillColor=#DA4026;" parent="oR8qnFVg_3T_-0G8JnXh-11" vertex="1">
          <mxGeometry x="72.5" y="40" width="25" height="53" as="geometry" />
        </mxCell>
        <mxCell id="oR8qnFVg_3T_-0G8JnXh-7" value="" style="verticalLabelPosition=bottom;verticalAlign=top;html=1;shape=mxgraph.basic.no_symbol;fillColor=none;" parent="oR8qnFVg_3T_-0G8JnXh-11" vertex="1">
          <mxGeometry x="60" y="40" width="50" height="50" as="geometry" />
        </mxCell>
        <mxCell id="oR8qnFVg_3T_-0G8JnXh-9" value="Existing user not logged in" style="text;html=1;strokeColor=none;fillColor=none;align=center;verticalAlign=middle;whiteSpace=wrap;rounded=0;" parent="oR8qnFVg_3T_-0G8JnXh-11" vertex="1">
          <mxGeometry y="100" width="142.5" height="30" as="geometry" />
        </mxCell>
        <mxCell id="oR8qnFVg_3T_-0G8JnXh-15" value="" style="group" parent="1" vertex="1" connectable="0">
          <mxGeometry x="240" y="200" width="120" height="300" as="geometry" />
        </mxCell>
        <mxCell id="oR8qnFVg_3T_-0G8JnXh-8" value="register new account" style="rounded=1;whiteSpace=wrap;html=1;" parent="oR8qnFVg_3T_-0G8JnXh-15" vertex="1">
          <mxGeometry y="80" width="120" height="60" as="geometry" />
        </mxCell>
        <mxCell id="oR8qnFVg_3T_-0G8JnXh-12" value="contact app owner via form" style="rounded=1;whiteSpace=wrap;html=1;" parent="oR8qnFVg_3T_-0G8JnXh-15" vertex="1">
          <mxGeometry y="160" width="120" height="60" as="geometry" />
        </mxCell>
        <mxCell id="oR8qnFVg_3T_-0G8JnXh-13" value="explore main functionality without creating account" style="rounded=1;whiteSpace=wrap;html=1;" parent="oR8qnFVg_3T_-0G8JnXh-15" vertex="1">
          <mxGeometry y="240" width="120" height="60" as="geometry" />
        </mxCell>
        <mxCell id="oR8qnFVg_3T_-0G8JnXh-14" value="change language" style="rounded=1;whiteSpace=wrap;html=1;" parent="oR8qnFVg_3T_-0G8JnXh-15" vertex="1">
          <mxGeometry width="120" height="60" as="geometry" />
        </mxCell>
        <mxCell id="oR8qnFVg_3T_-0G8JnXh-16" value="" style="endArrow=classic;html=1;rounded=0;entryX=0;entryY=0.5;entryDx=0;entryDy=0;" parent="1" target="oR8qnFVg_3T_-0G8JnXh-14" edge="1">
          <mxGeometry width="50" height="50" relative="1" as="geometry">
            <mxPoint x="140" y="290" as="sourcePoint" />
            <mxPoint x="190" y="240" as="targetPoint" />
          </mxGeometry>
        </mxCell>
        <mxCell id="oR8qnFVg_3T_-0G8JnXh-17" value="" style="endArrow=classic;html=1;rounded=0;entryX=0;entryY=0.5;entryDx=0;entryDy=0;" parent="1" target="oR8qnFVg_3T_-0G8JnXh-8" edge="1">
          <mxGeometry width="50" height="50" relative="1" as="geometry">
            <mxPoint x="140" y="310" as="sourcePoint" />
            <mxPoint x="250" y="240" as="targetPoint" />
          </mxGeometry>
        </mxCell>
        <mxCell id="oR8qnFVg_3T_-0G8JnXh-18" value="" style="endArrow=classic;html=1;rounded=0;entryX=0;entryY=0.5;entryDx=0;entryDy=0;" parent="1" edge="1">
          <mxGeometry width="50" height="50" relative="1" as="geometry">
            <mxPoint x="140" y="390" as="sourcePoint" />
            <mxPoint x="240" y="390" as="targetPoint" />
          </mxGeometry>
        </mxCell>
        <mxCell id="oR8qnFVg_3T_-0G8JnXh-19" value="" style="endArrow=classic;html=1;rounded=0;entryX=0;entryY=0.5;entryDx=0;entryDy=0;" parent="1" edge="1">
          <mxGeometry width="50" height="50" relative="1" as="geometry">
            <mxPoint x="140" y="430" as="sourcePoint" />
            <mxPoint x="240" y="470" as="targetPoint" />
          </mxGeometry>
        </mxCell>
        <mxCell id="bRlKWz4XIWCl1FZid_T7-1" value="log in to account" style="rounded=1;whiteSpace=wrap;html=1;" vertex="1" parent="1">
          <mxGeometry x="240" y="120" width="120" height="60" as="geometry" />
        </mxCell>
        <mxCell id="bRlKWz4XIWCl1FZid_T7-2" value="" style="endArrow=classic;html=1;rounded=0;entryX=-0.033;entryY=0.633;entryDx=0;entryDy=0;entryPerimeter=0;" edge="1" parent="1" target="bRlKWz4XIWCl1FZid_T7-1">
          <mxGeometry width="50" height="50" relative="1" as="geometry">
            <mxPoint x="130" y="260" as="sourcePoint" />
            <mxPoint x="230" y="200" as="targetPoint" />
          </mxGeometry>
        </mxCell>
      </root>
    </mxGraphModel>
  </diagram>
</mxfile>
